<svg width="32" height="32" fill="none" xmlns="http://www.w3.org/2000/svg"><path d="M29.469 16c0 7.432-6.037 13.469-13.469 13.469-7.432 0-13.469-6.037-13.469-13.469 0-7.432 6.037-13.469 13.47-13.469 7.43 0 13.468 6.037 13.468 13.47zM3.702 16A12.289 12.289 0 0016 28.298 12.289 12.289 0 0028.298 16 12.289 12.289 0 0016 3.702 12.289 12.289 0 003.702 16zm18.525-3.816l-5.916 3.709-.31.194-6.228-3.902L16 8.281l6.227 3.902zm-10.248 0L16 14.706l4.021-2.52-4.02-2.521-4.022 2.52zm3.168 4.886l.268.173v6.841l-5.857-3.66v-6.963l5.589 3.609zm7.295 3.354l-5.856 3.66v-6.84l5.856-3.783v6.963zm-11.712-.65l3.513 2.196v-4.088l-3.513-2.27v4.162zm7.027-1.893v4.09l3.513-2.197v-4.163l-3.513 2.27z" fill="#fff"/></svg>