<svg width="32" height="32" fill="none" xmlns="http://www.w3.org/2000/svg"><path d="M16 4.455c1.797 0 3.536 1.193 5.05 2.306.757.557 1.454 1.106 2.031 1.502.578.395 1.074.59 1.166.59v.004c2.083.034 3.499.865 4.34 1.85.86 1.004 1.16 2.084 1.16 2.78v2.042a1.58 1.58 0 01-1.567 1.573h-2.284v-.552a2.19 2.19 0 00-2.2-2.2 2.19 2.19 0 00-2.198 2.2v.552H11.052v-.552a2.19 2.19 0 00-2.199-2.2 2.19 2.19 0 00-2.199 2.2v.552H3.821a1.579 1.579 0 01-1.567-1.573v-3.064c0-.375.13-.608.293-.952.153-.32.359-.675.593-1.023l-.002-.002c.468-.752 1.392-2.226 2.603-3.532 1.212-1.306 2.732-2.5 4.49-2.5H16zm-9.452 3.25c-.346.372-.66.76-.956 1.146h7.11V5.555H10.23c-1.235 0-2.563.943-3.683 2.15zM13.8 8.85h8.223c-.512-.371-1.05-.782-1.625-1.205-1.475-1.084-3.126-2.09-4.398-2.09h-2.199V8.85zm-9.009 1.361c-.221.2-.472.501-.694.824-.223.323-.42.668-.556.951-.135.284-.184.572-.184.478v3.064a.46.46 0 00.462.469h1.785a3.307 3.307 0 013.248-2.747 3.307 3.307 0 013.248 2.747h8.348a3.307 3.307 0 013.248-2.747 3.307 3.307 0 013.248 2.747h1.235a.461.461 0 00.462-.47v-2.04c0-.319-.222-1.282-.892-2.065-.67-.784-1.754-1.468-3.63-1.468H5.206a1.19 1.19 0 00-.414.258zm20.554 8.537a4.406 4.406 0 014.398 4.398 4.406 4.406 0 01-4.398 4.398H2.256v-1.1h23.09a3.29 3.29 0 003.299-3.298 3.29 3.29 0 00-3.299-3.299H2.256v-1.1h23.09zm-18.142 2.9c.375.423.55.964.55 1.499a2.25 2.25 0 01-.55 1.499c-.376.422-.961.7-1.648.7-.688 0-1.273-.277-1.649-.7a2.246 2.246 0 01-.55-1.5c0-.534.175-1.075.55-1.498.376-.423.961-.7 1.649-.7.687 0 1.272.277 1.648.7zm6.597 0c.376.423.55.964.55 1.499 0 .534-.174 1.076-.55 1.499-.376.422-.961.7-1.648.7-.688 0-1.273-.277-1.648-.7a2.247 2.247 0 01-.551-1.5c0-.534.175-1.075.55-1.498.376-.423.961-.7 1.649-.7.687 0 1.272.277 1.648.7zm6.597 0c.376.423.55.964.55 1.499 0 .534-.174 1.076-.55 1.499-.376.422-.96.7-1.648.7-.687 0-1.273-.277-1.648-.7a2.246 2.246 0 01-.551-1.5c0-.534.175-1.075.55-1.498.376-.423.962-.7 1.649-.7s1.272.277 1.648.7zm6.597 0c.376.423.551.964.551 1.499a2.25 2.25 0 01-.55 1.499c-.377.422-.962.7-1.649.7s-1.273-.277-1.648-.7a2.246 2.246 0 01-.551-1.5c0-.534.175-1.075.55-1.498.376-.423.962-.7 1.649-.7s1.273.277 1.648.7zm-22.265.73a1.17 1.17 0 00-.274.769c0 .29.1.573.274.769.174.196.413.33.826.33.412 0 .651-.134.825-.33a1.17 1.17 0 00.274-.77c0-.29-.1-.572-.274-.768-.174-.196-.413-.33-.825-.33-.413 0-.652.134-.826.33zm6.597 0a1.17 1.17 0 00-.274.769c0 .29.1.573.274.769.174.196.413.33.826.33.412 0 .651-.134.825-.33a1.17 1.17 0 00.274-.77c0-.29-.1-.572-.274-.768-.174-.196-.413-.33-.825-.33-.413 0-.652.134-.826.33zm6.597 0a1.17 1.17 0 00-.274.769c0 .29.1.573.274.769.174.196.414.33.826.33s.651-.134.826-.33a1.17 1.17 0 00.273-.77c0-.29-.1-.572-.273-.768-.175-.196-.414-.33-.826-.33s-.652.134-.826.33zm6.597 0a1.17 1.17 0 00-.273.769c0 .29.1.573.273.769.174.196.414.33.826.33s.652-.134.826-.33a1.17 1.17 0 00.273-.77c0-.29-.1-.572-.273-.768-.174-.196-.414-.33-.826-.33s-.652.134-.826.33z" fill="#fff"/></svg>