<svg width="32" height="32" fill="none" xmlns="http://www.w3.org/2000/svg"><path d="M11.653.88h.057c2.856 0 5.034 1.198 6.445 2.91 1.41 1.713 2.079 3.906 2.079 5.973 0 2.485-1.014 3.992-1.928 5.235-.3.407-.584.785-.832 1.172.3-.102.612-.17.945-.17a3 3 0 012.098.87c.114-.372.277-.73.473-1.06a3.291 3.291 0 012.873-1.625c1.753 0 3.024 1.401 3.024 3.024a.606.606 0 01-.605.605c-.666 0-.86.206-1.134.718-.274.513-.463 1.333-.794 2.212-.326.864-.817 1.798-1.72 2.514h.624c.333 0 .605.271.605.604v2.42a.606.606 0 01-.605.604h-.605v3.63a.606.606 0 01-.605.604H11.162a.606.606 0 01-.605-.605v-3.629h-.605a.606.606 0 01-.605-.604v-2.42a.602.602 0 01.548-.604h1.531c-.13-.064-.269-.119-.397-.19-2.34-1.29-4.1-3.832-4.1-8.278 0-2.882.053-4.956-.133-6.482-.187-1.527-.565-2.465-1.493-3.365a.605.605 0 01.359-1.04h.056c1.146 0 2.85.313 4.31 1.192.862.52 1.634 1.275 2.079 2.268.484-1.751.505-3.35-.907-5.557a.603.603 0 01.396-.926h.057zm1.342 7.692c-.74 2.226-1.833 4.4-1.833 7.428 0 3.96 3.298 7.258 7.257 7.258h.095c1.663-.015 2.674-.39 3.345-.908.685-.529 1.066-1.238 1.36-2.022.296-.784.48-1.628.87-2.363.284-.531.815-.911 1.456-1.134-.161-.815-.7-1.436-1.683-1.436-.928 0-1.44.366-1.833 1.02-.392.655-.586 1.626-.586 2.609a3.033 3.033 0 01-3.024 3.024 3.033 3.033 0 01-3.024-3.024c0-.104.01-.2.02-.303.091-1.996 1.053-3.279 1.908-4.441.9-1.221 1.701-2.346 1.701-4.517 0-1.803-.59-3.735-1.795-5.198-1.033-1.254-2.53-2.126-4.518-2.362 1.142 2.372.929 4.427.284 6.37zm-4.99-.397c.206 1.68.133 3.752.133 6.615 0 4.142 1.479 6.12 3.477 7.22a8.36 8.36 0 001.663.68c-2.01-1.556-3.326-3.987-3.326-6.69 0-2.518.688-4.491 1.323-6.218.002-.005-.002-.014 0-.02a.63.63 0 01.019-.113c.16-1.767-.69-2.792-1.89-3.515-.763-.46-1.62-.704-2.42-.85.509.843.884 1.767 1.021 2.891zm8.6 10.849c0 1.009.805 1.814 1.814 1.814a1.806 1.806 0 001.815-1.814 1.806 1.806 0 00-1.815-1.815 1.806 1.806 0 00-1.814 1.815zm-6.048 6.653h12.096v-1.21H10.557v1.21zm1.21 4.233h9.676v-3.024h-9.677v3.024z" fill="#fff"/></svg>