<svg width="156" height="50" fill="none" xmlns="http://www.w3.org/2000/svg"><g clip-path="url(#clip0_78_1205)"><path d="M35.626 45.433l-6.634-6.607h-4.584L35.626 50 46.84 38.826h-4.583l-6.63 6.607zm0-40.866l6.63 6.607h4.583L35.626 0 24.408 11.174h4.584l6.634-6.607z" fill="#D83A56"/><path d="M15.12 25l8.334-8.304h-4.583l-6.713 6.69H3.24v-6.69H0v16.608h3.24v-6.69h8.918l6.713 6.69h4.583L15.121 25zm41.011 0l-8.338 8.304h4.588L60.715 25l-8.334-8.304h-4.583L56.13 25z" fill="#080809"/><path d="M27.997 33.304v-5.315h16.667c3.333 0 3.333-2.99 3.333-2.99v-5.314s0-2.99-3.333-2.99h-20v16.609h3.332zm0-13.619h16.667V25H27.996v-5.315z" fill="#D83A56"/><path d="M82.017 22.347h-2.5l-3.542-4.36h-5.848v4.36h-2.083v-10.38h2.083v4.152h5.741l3.648-4.152h2.5l-4.375 4.982 4.376 5.398zm16.157-1.868a1.775 1.775 0 01-1.143 1.752 1.793 1.793 0 01-.732.116H85.465c-1.852 0-1.852-1.868-1.852-1.868v-8.512h2.084v8.512h10.417v-8.512h2.083l-.023 8.512zm15.116 1.868h-11.875v-10.38h2.083v8.512h9.792v1.868zm3.705 0h-2.084v-10.38h2.084v10.38zm15.482-10.38s1.875 0 1.875 1.868v2.7a.625.625 0 00-.625.622.625.625 0 00.625.623v2.699s0 1.868-1.875 1.868h-12.705v-10.38h12.705zm-.204 1.868h-10.417v2.284h10.417v-2.284zm0 4.152h-10.417v2.492h10.417v-2.491zm6.944 4.36h-2.083v-10.38h2.083v10.38zm5.324-10.38l9.385 7.889v-7.889h2.083v10.38h-2.083l-9.371-7.889v7.89h-2.083V11.966h2.069z" fill="#080809"/><path d="M82.628 29.521v3.322a1.895 1.895 0 01-1.307 1.78c-.25.082-.514.112-.777.088H70.127v3.322h-2.083v-10.38h12.5a1.915 1.915 0 011.452.48 1.901 1.901 0 01.632 1.388zm-12.5 0v3.322h10.416V29.52H70.127zm28.046 8.512l-2.5-3.322H87.55v3.322h-2.083v-10.38h12.5a1.915 1.915 0 011.452.48 1.902 1.902 0 01.632 1.388v3.322a1.907 1.907 0 01-.632 1.388 1.908 1.908 0 01-1.452.48l2.5 3.322h-2.291zm-.208-8.512H87.55v3.322h10.417V29.52zm7.407 8.512h-2.083v-10.38h2.083v10.38zm5.325-10.38l9.375 7.889v-7.89h2.083v10.381h-2.083l-9.375-7.889v7.889h-2.084v-10.38h2.084zm27.82 1.868h-6.246v8.512h-2.083v-8.512h-6.251v-1.868h14.58v1.868z" fill="#D83A56"/></g><defs><clipPath id="clip0_78_1205"><path fill="#fff" d="M0 0h156v50H0z"/></clipPath></defs></svg>