<svg width="32" height="32" fill="none" xmlns="http://www.w3.org/2000/svg"><path d="M12.454 1.279a.64.64 0 00-.12.008c-2.93.041-5.372.974-7.078 2.613C3.512 5.576 2.56 7.964 2.56 10.72c0 2.033.752 3.617 1.583 5.101.83 1.484 1.735 2.893 2.23 4.69v-.003c.571 2.127.976 4.562 1.605 6.526.314.982.679 1.853 1.206 2.529.527.675 1.285 1.157 2.18 1.157.875 0 1.68-.33 2.206-.965.527-.636.766-1.512.766-2.55 0-2.551.516-5.93 1.038-8.849.088-.419.355-.544.647-.544.294 0 .533.106.602.522v.01c.523 2.86 1.04 6.306 1.04 8.861 0 1.038.24 1.914.767 2.55.527.636 1.331.965 2.206.965.898 0 1.655-.487 2.182-1.168.526-.68.89-1.555 1.205-2.54.627-1.97 1.034-4.405 1.605-6.5.494-1.798 1.4-3.207 2.23-4.69.83-1.484 1.581-3.068 1.582-5.1.03-2.755-.908-5.145-2.645-6.82-1.738-1.678-4.249-2.622-7.267-2.622-1.312 0-2.47.177-3.5.512C15 1.457 13.843 1.28 12.53 1.28l-.022.001a.64.64 0 00-.054-.002zm7.074 1.281c2.754 0 4.91.845 6.378 2.262 1.47 1.418 2.281 3.427 2.254 5.89v.008c0 1.721-.617 3.041-1.42 4.476-.802 1.435-1.793 2.96-2.347 4.975v.002c-.596 2.187-1.007 4.622-1.59 6.45-.29.913-.63 1.67-.998 2.146s-.696.671-1.169.671c-.583 0-.944-.169-1.22-.501-.275-.333-.472-.895-.472-1.734 0-2.722-.532-6.193-1.059-9.081a1.908 1.908 0 00-1.864-1.591c-.829 0-1.697.58-1.9 1.566l-.003.009-.002.008c-.527 2.945-1.06 6.364-1.06 9.089 0 .84-.197 1.401-.472 1.734-.275.332-.637.501-1.22.501-.475 0-.804-.193-1.171-.665-.368-.472-.706-1.221-.997-2.131-.582-1.82-.992-4.255-1.587-6.469l-.001-.001v-.003c-.555-2.015-1.545-3.54-2.348-4.975-.802-1.434-1.42-2.754-1.42-4.476 0-2.465.827-4.477 2.304-5.896 1.464-1.407 3.596-2.247 6.315-2.262 2.27.172 4.25 1.2 5.651 2.827a.64.64 0 10.97-.835 9.444 9.444 0 00-1.995-1.74c.72-.165 1.53-.254 2.443-.254z" fill="#fff"/></svg>